<?xml version='1.0' encoding='utf-8'?>
<svg xmlns="http://www.w3.org/2000/svg" width="91.44mm" height="91.44mm" version="1.1" style="shape-rendering:geometricPrecision; text-rendering:geometricPrecision; image-rendering:optimizeQuality; fill-rule:evenodd; clip-rule:evenodd" viewBox="0 0 9144 9144"> <defs> <style type="text/css">  .fil0 {fill:#F0F0F0} .fil1 {fill:#011627;fill-rule:nonzero}  </style> </defs> <g id="Layer_x0020_1"> <metadata id="CorelCorpID_0Corel-Layer"/> <polygon class="fil0" points="0,0 9144,0 9144,9144 0,9144 "/> <path class="fil1" d="M6601 4572c0,-560 -227,-1067 -594,-1435 -368,-367 -875,-594 -1435,-594 -560,0 -1067,227 -1435,594 -367,368 -594,875 -594,1435 0,560 227,1067 594,1435 368,367 875,594 1435,594 560,0 1067,-227 1435,-594 367,-368 594,-875 594,-1435zm-1941 -306c0,2 0,3 0,5 0,2 0,5 0,7l0 2 0 0c-5,45 -42,79 -88,79 -46,0 -83,-34 -88,-79l0 0 0 -2c0,-2 0,-5 0,-7 0,-2 0,-3 0,-5 -4,-149 -66,-285 -165,-383 -101,-102 -242,-165 -397,-165 -155,0 -296,63 -397,165 -102,101 -165,242 -165,397 0,265 133,513 316,727 282,332 679,584 896,704 217,-120 614,-372 896,-704 183,-214 316,-462 316,-727 0,-155 -63,-296 -165,-397 -101,-102 -242,-165 -397,-165 -155,0 -296,63 -397,165 -99,98 -161,234 -165,383zm-88 -336c34,-64 77,-121 128,-172 134,-134 318,-216 522,-216 204,0 388,82 522,216 134,134 216,318 216,522 0,313 -151,598 -357,841 -320,376 -775,653 -990,768 -27,14 -58,13 -83,-1 -215,-115 -669,-391 -989,-767 -206,-243 -357,-528 -357,-841 0,-204 82,-388 216,-522 134,-134 318,-216 522,-216 204,0 388,82 522,216 51,51 94,108 128,172zm1559 -917c399,399 646,950 646,1559 0,609 -247,1160 -646,1559 -399,399 -950,646 -1559,646 -609,0 -1160,-247 -1559,-646 -399,-399 -646,-950 -646,-1559 0,-609 247,-1160 646,-1559 399,-399 950,-646 1559,-646 609,0 1160,247 1559,646z"/> </g> </svg>